Varta-Bold.ufo
<glyph name="circumflexcomb" format="2">
  <unicode hex="0302"/>
  <anchor x="560.5" y="1003.0" name="_top"/>
  <anchor x="560.5" y="1470.0" name="top"/>
  <outline>
    <contour>
      <point x="277.0" y="1175.0" type="line"/>
      <point x="430.0" y="1175.0" type="line"/>
      <point x="556.0" y="1351.0" type="line"/>
      <point x="564.0" y="1351.0" type="line"/>
      <point x="691.0" y="1175.0" type="line"/>
      <point x="844.0" y="1175.0" type="line"/>
      <point x="649.0" y="1470.0" type="line"/>
      <point x="471.0" y="1470.0" type="line"/>
    </contour>
  </outline>
</glyph>
<glyph name="invertedCandraBindu-deva" format="2">
  <unicode hex="0900"/>
  <anchor x="272.0" y="1287.0" name="_candra"/>
  <anchor x="269.0" y="2068.0" name="top"/>
  <outline>
    <contour>
      <point x="269.0" y="1982.0" type="curve" smooth="yes"/>
      <point x="76.0" y="1982.0"/>
      <point x="-38.0" y="1866.0"/>
      <point x="-88.0" y="1742.0" type="curve"/>
      <point x="53.0" y="1660.0" type="line"/>
      <point x="97.0" y="1736.0"/>
      <point x="164.0" y="1799.0"/>
      <point x="278.0" y="1799.0" type="curve" smooth="yes"/>
      <point x="402.0" y="1799.0"/>
      <point x="455.0" y="1723.0"/>
      <point x="497.0" y="1655.0" type="curve"/>
      <point x="631.0" y="1730.0" type="line"/>
      <point x="557.0" y="1893.0"/>
      <point x="441.0" y="1982.0"/>
    </contour>
    <contour>
      <point x="269.0" y="1719.0" type="curve" smooth="yes"/>
      <point x="187.0" y="1719.0"/>
      <point x="152.0" y="1685.0"/>
      <point x="152.0" y="1604.0" type="curve" smooth="yes"/>
      <point x="152.0" y="1522.0"/>
      <point x="187.0" y="1488.0"/>
      <point x="269.0" y="1488.0" type="curve" smooth="yes"/>
      <point x="351.0" y="1488.0"/>
      <point x="386.0" y="1522.0"/>
      <point x="386.0" y="1604.0" type="curve" smooth="yes"/>
      <point x="386.0" y="1685.0"/>
      <point x="351.0" y="1719.0"/>
    </contour>
  </outline>
</glyph>
<glyph name="zero-deva" format="2">
  <advance width="967.0"/>
  <unicode hex="0966"/>
  <outline>
    <contour>
      <point x="486.0" y="204.0" type="curve" smooth="yes"/>
      <point x="646.0" y="204.0"/>
      <point x="828.0" y="295.0"/>
      <point x="828.0" y="552.0" type="curve" smooth="yes"/>
      <point x="828.0" y="791.0"/>
      <point x="695.0" y="946.0"/>
      <point x="480.0" y="946.0" type="curve" smooth="yes"/>
      <point x="321.0" y="946.0"/>
      <point x="139.0" y="855.0"/>
      <point x="139.0" y="587.0" type="curve" smooth="yes"/>
      <point x="139.0" y="358.0"/>
      <point x="272.0" y="204.0"/>
    </contour>
    <contour>
      <point x="480.0" y="371.0" type="curve"/>
      <point x="384.0" y="371.0"/>
      <point x="331.0" y="433.0"/>
      <point x="330.0" y="566.0" type="curve" smooth="yes"/>
      <point x="329.0" y="720.0"/>
      <point x="395.0" y="778.0"/>
      <point x="485.0" y="778.0" type="curve" smooth="yes"/>
      <point x="582.0" y="778.0"/>
      <point x="637.0" y="715.0"/>
      <point x="637.0" y="573.0" type="curve" smooth="yes"/>
      <point x="637.0" y="430.0"/>
      <point x="571.0" y="371.0"/>
    </contour>
  </outline>
</glyph>
<glyph name="aiMatra_reph_candraBindu-deva" format="2">
  <advance width="540.0"/>
  <anchor x="195.0" y="1287.0" name="_top"/>
  <anchor x="242.0" y="1680.0" name="candra"/>
  <anchor x="237.0" y="1676.0" name="top"/>
  <outline>
    <contour>
      <point x="216.0" y="1251.0" type="curve"/>
      <point x="286.0" y="1280.0" type="line"/>
      <point x="269.0" y="1330.0"/>
      <point x="255.0" y="1398.0"/>
      <point x="255.0" y="1448.0" type="curve" smooth="yes"/>
      <point x="255.0" y="1541.0"/>
      <point x="302.0" y="1669.0"/>
      <point x="456.0" y="1669.0" type="curve" smooth="yes"/>
      <point x="499.0" y="1669.0"/>
      <point x="554.0" y="1661.0"/>
      <point x="617.0" y="1633.0" type="curve"/>
      <point x="662.0" y="1794.0" type="line"/>
      <point x="599.0" y="1825.0"/>
      <point x="515.0" y="1849.0"/>
      <point x="439.0" y="1849.0" type="curve" smooth="yes"/>
      <point x="211.0" y="1849.0"/>
      <point x="126.0" y="1664.0"/>
      <point x="126.0" y="1503.0" type="curve" smooth="yes"/>
      <point x="126.0" y="1442.0"/>
      <point x="138.0" y="1336.0"/>
    </contour>
    <contour>
      <point x="175.0" y="1225.0" type="curve"/>
      <point x="286.0" y="1269.0" type="line"/>
      <point x="186.0" y="1752.0"/>
      <point x="70.0" y="1871.0"/>
      <point x="-217.0" y="1871.0" type="curve" smooth="yes"/>
      <point x="-330.0" y="1871.0"/>
      <point x="-407.0" y="1854.0"/>
      <point x="-449.0" y="1844.0" type="curve"/>
      <point x="-414.0" y="1684.0" type="line"/>
      <point x="-341.0" y="1700.0"/>
      <point x="-273.0" y="1714.0"/>
      <point x="-209.0" y="1714.0" type="curve" smooth="yes"/>
      <point x="-55.0" y="1714.0"/>
      <point x="65.0" y="1622.0"/>
      <point x="166.0" y="1325.0" type="curve"/>
      <point x="199.0" y="1345.0" type="line"/>
      <point x="63.0" y="1506.0"/>
      <point x="-25.0" y="1578.0"/>
      <point x="-154.0" y="1578.0" type="curve" smooth="yes"/>
      <point x="-229.0" y="1578.0"/>
      <point x="-324.0" y="1568.0"/>
      <point x="-407.0" y="1546.0" type="curve"/>
      <point x="-370.0" y="1401.0" type="line"/>
      <point x="-292.0" y="1417.0"/>
      <point x="-229.0" y="1426.0"/>
      <point x="-159.0" y="1426.0" type="curve" smooth="yes"/>
      <point x="-2.0" y="1426.0"/>
      <point x="79.0" y="1344.0"/>
    </contour>
    <component base="candraBindu-deva" xScale="0.60348" yScale="0.60348" xOffset="343.0" yOffset="413.0"/>
  </outline>
</glyph>
<glyph name="bh_ra-deva" format="2">
  <advance width="755.0"/>
  <outline>
    <contour>
      <point x="397.0" y="-70.0" type="line"/>
      <point x="1005.0" y="416.0" type="line"/>
      <point x="909.0" y="529.0" type="line"/>
      <point x="271.0" y="82.0" type="line"/>
    </contour>
    <contour>
      <point x="275.0" y="548.0" type="line"/>
      <point x="485.0" y="548.0" type="line"/>
      <point x="485.0" y="1032.0" type="line" smooth="yes"/>
      <point x="485.0" y="1168.0"/>
      <point x="464.0" y="1307.0"/>
      <point x="239.0" y="1307.0" type="curve" smooth="yes"/>
      <point x="173.0" y="1307.0"/>
      <point x="133.0" y="1299.0"/>
      <point x="93.0" y="1281.0" type="curve"/>
      <point x="124.0" y="1105.0" type="line"/>
      <point x="146.0" y="1113.0"/>
      <point x="168.0" y="1118.0"/>
      <point x="197.0" y="1118.0" type="curve" smooth="yes"/>
      <point x="245.0" y="1119.0"/>
      <point x="275.0" y="1099.0"/>
      <point x="275.0" y="1035.0" type="curve" smooth="yes"/>
    </contour>
    <contour>
      <point x="316.0" y="289.0" type="line"/>
      <point x="455.0" y="289.0"/>
      <point x="484.0" y="357.0"/>
      <point x="484.0" y="437.0" type="curve" smooth="yes"/>
      <point x="484.0" y="661.0" type="line"/>
      <point x="318.0" y="661.0" type="line"/>
      <point x="131.0" y="639.0" type="line"/>
      <point x="131.0" y="495.0" type="line"/>
    </contour>
    <contour>
      <point x="280.0" y="471.0" type="line"/>
      <point x="924.0" y="471.0" type="line"/>
      <point x="924.0" y="657.0" type="line"/>
      <point x="280.0" y="657.0" type="line"/>
    </contour>
  </outline>
</glyph>
<glyph name="brevecomb.cap" format="2">
  <anchor x="275.0" y="1340.0" name="_top"/>
  <anchor x="275.0" y="1679.0" name="top"/>
  <outline>
    <contour>
      <point x="275.0" y="1475.0" type="curve" smooth="yes"/>
      <point x="445.0" y="1475.0"/>
      <point x="525.0" y="1581.0"/>
      <point x="540.0" y="1709.0" type="curve"/>
      <point x="410.0" y="1709.0" type="line"/>
      <point x="397.0" y="1649.0"/>
      <point x="357.0" y="1595.0"/>
      <point x="275.0" y="1595.0" type="curve" smooth="yes"/>
      <point x="193.0" y="1595.0"/>
      <point x="153.0" y="1649.0"/>
      <point x="140.0" y="1709.0" type="curve"/>
      <point x="10.0" y="1709.0" type="line"/>
      <point x="25.0" y="1581.0"/>
      <point x="105.0" y="1475.0"/>
    </contour>
  </outline>
</glyph>
<glyph name="c_ra-deva" format="2">
  <advance width="749.0"/>
  <outline>
    <contour>
      <point x="326.0" y="-118.0" type="line"/>
      <point x="924.0" y="332.0" type="line"/>
      <point x="848.0" y="448.0" type="line"/>
      <point x="210.0" y="32.0" type="line"/>
    </contour>
    <component base="c-deva"/>
  </outline>
</glyph>
<glyph name="commaabovecomb.cap" format="2">
  <anchor x="119.0" y="1340.0" name="_top"/>
  <anchor x="119.0" y="1513.0" name="top"/>
  <outline>
    <contour>
      <point x="49.0" y="1112.0" type="line"/>
      <point x="174.0" y="1165.0"/>
      <point x="228.0" y="1258.0"/>
      <point x="228.0" y="1361.0" type="curve" smooth="yes"/>
      <point x="228.0" y="1460.0"/>
      <point x="188.0" y="1513.0"/>
      <point x="113.0" y="1513.0" type="curve" smooth="yes"/>
      <point x="63.0" y="1513.0"/>
      <point x="20.0" y="1477.0"/>
      <point x="20.0" y="1413.0" type="curve" smooth="yes"/>
      <point x="20.0" y="1355.0"/>
      <point x="66.0" y="1323.0"/>
      <point x="113.0" y="1323.0" type="curve" smooth="yes"/>
      <point x="119.0" y="1323.0"/>
      <point x="125.0" y="1323.0"/>
      <point x="130.0" y="1325.0" type="curve"/>
      <point x="124.0" y="1267.0"/>
      <point x="86.0" y="1222.0"/>
      <point x="10.0" y="1188.0" type="curve"/>
    </contour>
  </outline>
</glyph>
<glyph name="commaaccentcomb.cap" format="2">
  <anchor x="181.0" y="0.0" name="_bottom"/>
  <anchor x="181.0" y="-452.0" name="bottom"/>
  <outline>
    <contour>
      <point x="30.0" y="-512.0" type="line"/>
      <point x="200.0" y="-501.0"/>
      <point x="352.0" y="-443.0"/>
      <point x="352.0" y="-317.0" type="curve" smooth="yes"/>
      <point x="352.0" y="-221.0"/>
      <point x="289.0" y="-173.0"/>
      <point x="135.0" y="-153.0" type="curve"/>
      <point x="90.0" y="-244.0" type="line"/>
      <point x="148.0" y="-259.0"/>
      <point x="188.0" y="-281.0"/>
      <point x="188.0" y="-328.0" type="curve" smooth="yes"/>
      <point x="188.0" y="-379.0"/>
      <point x="115.0" y="-403.0"/>
      <point x="10.0" y="-415.0" type="curve"/>
    </contour>
  </outline>
</glyph>
<glyph name="commaturnedabovecomb.cap" format="2">
  <anchor x="120.0" y="1340.0" name="_top"/>
  <anchor x="120.0" y="1518.0" name="top"/>
  <outline>
    <contour>
      <point x="126.0" y="1115.0" type="curve" smooth="yes"/>
      <point x="176.0" y="1115.0"/>
      <point x="218.0" y="1152.0"/>
      <point x="218.0" y="1217.0" type="curve" smooth="yes"/>
      <point x="218.0" y="1275.0"/>
      <point x="172.0" y="1307.0"/>
      <point x="125.0" y="1307.0" type="curve" smooth="yes"/>
      <point x="120.0" y="1307.0"/>
      <point x="115.0" y="1307.0"/>
      <point x="109.0" y="1305.0" type="curve"/>
      <point x="115.0" y="1364.0"/>
      <point x="152.0" y="1410.0"/>
      <point x="230.0" y="1442.0" type="curve"/>
      <point x="189.0" y="1518.0" type="line"/>
      <point x="65.0" y="1465.0"/>
      <point x="10.0" y="1371.0"/>
      <point x="10.0" y="1267.0" type="curve" smooth="yes"/>
      <point x="10.0" y="1168.0"/>
      <point x="50.0" y="1115.0"/>
    </contour>
  </outline>
</glyph>
<glyph name="d_d_ya-deva" format="2">
  <advance width="2098.0"/>
  <anchor x="1826.0" y="0.0" name="bottom"/>
  <anchor x="1420.0" y="1287.0" name="candra"/>
  <anchor x="1818.0" y="1287.0" name="top"/>
  <outline>
    <contour>
      <point x="886.0" y="1104.0" type="line"/>
      <point x="2117.0" y="1104.0" type="line"/>
      <point x="2117.0" y="1287.0" type="line"/>
      <point x="886.0" y="1287.0" type="line"/>
    </contour>
    <contour>
      <point x="1453.0" y="127.0" type="curve" smooth="yes"/>
      <point x="1582.0" y="127.0"/>
      <point x="1675.0" y="173.0"/>
      <point x="1756.0" y="257.0" type="curve"/>
      <point x="1768.0" y="513.0" type="line"/>
      <point x="1684.0" y="376.0"/>
      <point x="1556.0" y="319.0"/>
      <point x="1436.0" y="319.0" type="curve" smooth="yes"/>
      <point x="1312.0" y="319.0"/>
      <point x="1216.0" y="358.0"/>
      <point x="1180.0" y="484.0" type="curve"/>
      <point x="1163.0" y="406.0" type="line"/>
      <point x="1272.0" y="442.0"/>
      <point x="1431.0" y="497.0"/>
      <point x="1431.0" y="665.0" type="curve" smooth="yes"/>
      <point x="1431.0" y="854.0"/>
      <point x="1314.0" y="912.0"/>
      <point x="1111.0" y="911.0" type="curve" smooth="yes"/>
      <point x="723.0" y="910.0" type="line"/>
      <point x="734.0" y="735.0" type="line"/>
      <point x="1140.0" y="735.0" type="line" smooth="yes"/>
      <point x="1196.0" y="735.0"/>
      <point x="1239.0" y="720.0"/>
      <point x="1239.0" y="666.0" type="curve" smooth="yes"/>
      <point x="1239.0" y="609.0"/>
      <point x="1167.0" y="578.0"/>
      <point x="982.0" y="533.0" type="curve"/>
      <point x="1033.0" y="267.0"/>
      <point x="1205.0" y="127.0"/>
    </contour>
    <contour>
      <point x="1729.0" y="0.0" type="line"/>
      <point x="1939.0" y="0.0" type="line"/>
      <point x="1939.0" y="1131.0" type="line"/>
      <point x="1729.0" y="1131.0" type="line"/>
    </contour>
    <component base="d_da-deva"/>
  </outline>
</glyph>
<glyph name="d_ma-deva" format="2">
  <advance width="1563.0"/>
  <anchor x="1282.0" y="0.0" name="bottom"/>
  <anchor x="782.0" y="1287.0" name="candra"/>
  <anchor x="1281.0" y="1287.0" name="top"/>
  <outline>
    <contour>
      <point x="857.0" y="255.0" type="line"/>
      <point x="857.0" y="407.0" type="line" smooth="yes"/>
      <point x="857.0" y="625.0"/>
      <point x="700.0" y="662.0"/>
      <point x="594.0" y="662.0" type="curve" smooth="yes"/>
      <point x="494.0" y="662.0"/>
      <point x="423.0" y="646.0"/>
      <point x="350.0" y="635.0" type="curve"/>
      <point x="338.0" y="663.0"/>
      <point x="329.0" y="692.0"/>
      <point x="329.0" y="724.0" type="curve" smooth="yes"/>
      <point x="329.0" y="789.0"/>
      <point x="346.0" y="816.0"/>
      <point x="475.0" y="816.0" type="curve" smooth="yes"/>
      <point x="770.0" y="816.0" type="line"/>
      <point x="748.0" y="1005.0" type="line"/>
      <point x="411.0" y="1003.0" type="line" smooth="yes"/>
      <point x="217.0" y="1002.0"/>
      <point x="133.0" y="922.0"/>
      <point x="133.0" y="780.0" type="curve" smooth="yes"/>
      <point x="133.0" y="661.0"/>
      <point x="187.0" y="533.0"/>
      <point x="256.0" y="473.0" type="curve" smooth="yes"/>
      <point x="284.0" y="449.0"/>
      <point x="316.0" y="435.0"/>
      <point x="349.0" y="440.0" type="curve" smooth="yes"/>
      <point x="407.0" y="449.0"/>
      <point x="490.0" y="467.0"/>
      <point x="536.0" y="467.0" type="curve" smooth="yes"/>
      <point x="615.0" y="467.0"/>
      <point x="651.0" y="448.0"/>
      <point x="651.0" y="393.0" type="curve" smooth="yes"/>
      <point x="651.0" y="260.0" type="line"/>
    </contour>
    <contour>
      <point x="692.0" y="-19.0" type="line"/>
      <point x="829.0" y="-19.0"/>
      <point x="859.0" y="52.0"/>
      <point x="859.0" y="132.0" type="curve" smooth="yes"/>
      <point x="859.0" y="350.0" type="line"/>
      <point x="696.0" y="351.0" type="line"/>
      <point x="509.0" y="329.0" type="line"/>
      <point x="509.0" y="187.0" type="line"/>
    </contour>
    <contour>
      <point x="659.0" y="165.0" type="line"/>
      <point x="1303.0" y="165.0" type="line"/>
      <point x="1303.0" y="349.0" type="line"/>
      <point x="659.0" y="349.0" type="line"/>
    </contour>
    <contour>
      <point x="641.0" y="816.0" type="line"/>
      <point x="847.0" y="816.0" type="line"/>
      <point x="847.0" y="1141.0" type="line"/>
      <point x="641.0" y="1141.0" type="line"/>
    </contour>
    <contour>
      <point x="1176.0" y="-2.0" type="line"/>
      <point x="1386.0" y="-2.0" type="line"/>
      <point x="1386.0" y="1152.0" type="line"/>
      <point x="1176.0" y="1152.0" type="line"/>
    </contour>
    <contour>
      <point x="-19.0" y="1104.0" type="line"/>
      <point x="1581.0" y="1104.0" type="line"/>
      <point x="1581.0" y="1287.0" type="line"/>
      <point x="-19.0" y="1287.0" type="line"/>
    </contour>
  </outline>
</glyph>
<glyph name="d_v_ra-deva" format="2">
  <advance width="1061.0"/>
  <anchor x="724.0" y="1287.0" name="candra"/>
  <anchor x="724.0" y="1287.0" name="top"/>
  <outline>
    <contour>
      <point x="557.0" y="58.0" type="curve" smooth="yes"/>
      <point x="663.0" y="58.0"/>
      <point x="748.0" y="78.0"/>
      <point x="833.0" y="134.0" type="curve" smooth="yes"/>
      <point x="891.0" y="174.0"/>
      <point x="932.0" y="259.0"/>
      <point x="932.0" y="323.0" type="curve" smooth="yes"/>
      <point x="932.0" y="432.0"/>
      <point x="827.0" y="508.0"/>
      <point x="713.0" y="537.0" type="curve"/>
      <point x="598.0" y="450.0" type="line"/>
      <point x="701.0" y="231.0" type="line"/>
      <point x="799.0" y="326.0" type="line"/>
      <point x="700.0" y="260.0"/>
      <point x="653.0" y="233.0"/>
      <point x="539.0" y="233.0" type="curve" smooth="yes"/>
      <point x="367.0" y="233.0"/>
      <point x="280.0" y="296.0"/>
      <point x="280.0" y="474.0" type="curve" smooth="yes"/>
      <point x="280.0" y="681.0"/>
      <point x="396.0" y="721.0"/>
      <point x="601.0" y="721.0" type="curve" smooth="yes"/>
      <point x="709.0" y="721.0"/>
      <point x="762.0" y="717.0"/>
      <point x="825.0" y="713.0" type="curve"/>
      <point x="825.0" y="1134.0" type="line"/>
      <point x="614.0" y="1134.0" type="line"/>
      <point x="614.0" y="840.0" type="line"/>
      <point x="755.0" y="870.0" type="line"/>
      <point x="667.0" y="899.0"/>
      <point x="597.0" y="908.0"/>
      <point x="543.0" y="908.0" type="curve" smooth="yes"/>
      <point x="200.0" y="908.0"/>
      <point x="62.0" y="745.0"/>
      <point x="62.0" y="502.0" type="curve" smooth="yes"/>
      <point x="62.0" y="248.0"/>
      <point x="217.0" y="58.0"/>
    </contour>
    <contour>
      <point x="340.0" y="-455.0" type="curve" smooth="yes"/>
      <point x="747.0" y="-457.0"/>
      <point x="824.0" y="-25.0"/>
      <point x="813.0" y="190.0" type="curve"/>
      <point x="681.0" y="254.0" type="line"/>
      <point x="660.0" y="-116.0"/>
      <point x="533.0" y="-295.0"/>
      <point x="367.0" y="-293.0" type="curve" smooth="yes"/>
      <point x="270.0" y="-292.0"/>
      <point x="209.0" y="-242.0"/>
      <point x="208.0" y="-159.0" type="curve" smooth="yes"/>
      <point x="206.0" y="-28.0"/>
      <point x="321.0" y="43.0"/>
      <point x="400.0" y="85.0" type="curve"/>
      <point x="351.0" y="219.0" type="line"/>
      <point x="240.0" y="166.0"/>
      <point x="26.0" y="35.0"/>
      <point x="24.0" y="-164.0" type="curve" smooth="yes"/>
      <point x="22.0" y="-335.0"/>
      <point x="139.0" y="-454.0"/>
    </contour>
    <contour>
      <point x="1066.0" y="-321.0" type="line"/>
      <point x="1213.0" y="-223.0" type="line"/>
      <point x="852.0" y="272.0" type="line"/>
      <point x="745.0" y="216.0" type="line"/>
    </contour>
    <contour>
      <point x="-19.0" y="1104.0" type="line"/>
      <point x="1090.0" y="1104.0" type="line"/>
      <point x="1090.0" y="1287.0" type="line"/>
      <point x="-19.0" y="1287.0" type="line"/>
    </contour>
    <contour>
      <point x="806.0" y="-622.0" type="line"/>
      <point x="1035.0" y="-118.0" type="line"/>
      <point x="922.0" y="-60.0" type="line"/>
      <point x="655.0" y="-546.0" type="line"/>
    </contour>
  </outline>
</glyph>
<glyph name="d_v_ya-deva" format="2">
  <advance width="2165.0"/>
  <anchor x="1891.0" y="0.0" name="bottom"/>
  <anchor x="1870.0" y="1287.0" name="candra"/>
  <anchor x="1907.0" y="1287.0" name="top"/>
  <outline>
    <contour>
      <point x="1503.0" y="98.0" type="curve" smooth="yes"/>
      <point x="1632.0" y="98.0"/>
      <point x="1725.0" y="144.0"/>
      <point x="1806.0" y="228.0" type="curve"/>
      <point x="1818.0" y="484.0" type="line"/>
      <point x="1734.0" y="347.0"/>
      <point x="1606.0" y="290.0"/>
      <point x="1486.0" y="290.0" type="curve" smooth="yes"/>
      <point x="1362.0" y="290.0"/>
      <point x="1266.0" y="351.0"/>
      <point x="1230.0" y="497.0" type="curve"/>
      <point x="1213.0" y="419.0" type="line"/>
      <point x="1322.0" y="455.0"/>
      <point x="1481.0" y="514.0"/>
      <point x="1481.0" y="692.0" type="curve" smooth="yes"/>
      <point x="1481.0" y="848.0"/>
      <point x="1364.0" y="903.0"/>
      <point x="1161.0" y="902.0" type="curve" smooth="yes"/>
      <point x="761.0" y="901.0" type="line"/>
      <point x="745.0" y="722.0" type="line"/>
      <point x="1189.0" y="722.0" type="line" smooth="yes"/>
      <point x="1246.0" y="722.0"/>
      <point x="1289.0" y="713.0"/>
      <point x="1289.0" y="681.0" type="curve" smooth="yes"/>
      <point x="1289.0" y="632.0"/>
      <point x="1217.0" y="591.0"/>
      <point x="1031.0" y="546.0" type="curve"/>
      <point x="1083.0" y="260.0"/>
      <point x="1255.0" y="98.0"/>
    </contour>
    <contour>
      <point x="921.0" y="1104.0" type="line"/>
      <point x="2184.0" y="1104.0" type="line"/>
      <point x="2184.0" y="1287.0" type="line"/>
      <point x="921.0" y="1287.0" type="line"/>
    </contour>
    <contour>
      <point x="1999.0" y="0.0" type="line"/>
      <point x="1999.0" y="1131.0" type="line"/>
      <point x="1789.0" y="1131.0" type="line"/>
      <point x="1789.0" y="0.0" type="line"/>
    </contour>
    <contour>
      <point x="557.0" y="58.0" type="curve" smooth="yes"/>
      <point x="663.0" y="58.0"/>
      <point x="748.0" y="78.0"/>
      <point x="833.0" y="134.0" type="curve" smooth="yes"/>
      <point x="891.0" y="174.0"/>
      <point x="932.0" y="259.0"/>
      <point x="932.0" y="323.0" type="curve" smooth="yes"/>
      <point x="932.0" y="432.0"/>
      <point x="827.0" y="508.0"/>
      <point x="713.0" y="537.0" type="curve"/>
      <point x="598.0" y="450.0" type="line"/>
      <point x="701.0" y="231.0" type="line"/>
      <point x="799.0" y="326.0" type="line"/>
      <point x="700.0" y="260.0"/>
      <point x="653.0" y="233.0"/>
      <point x="539.0" y="233.0" type="curve" smooth="yes"/>
      <point x="367.0" y="233.0"/>
      <point x="280.0" y="296.0"/>
      <point x="280.0" y="474.0" type="curve" smooth="yes"/>
      <point x="280.0" y="681.0"/>
      <point x="396.0" y="721.0"/>
      <point x="601.0" y="721.0" type="curve"/>
      <point x="825.0" y="723.0" type="line"/>
      <point x="825.0" y="1134.0" type="line"/>
      <point x="614.0" y="1134.0" type="line"/>
      <point x="614.0" y="840.0" type="line"/>
      <point x="755.0" y="870.0" type="line"/>
      <point x="667.0" y="899.0"/>
      <point x="597.0" y="908.0"/>
      <point x="543.0" y="908.0" type="curve" smooth="yes"/>
      <point x="200.0" y="908.0"/>
      <point x="62.0" y="745.0"/>
      <point x="62.0" y="502.0" type="curve" smooth="yes"/>
      <point x="62.0" y="248.0"/>
      <point x="217.0" y="58.0"/>
    </contour>
    <contour>
      <point x="380.0" y="-435.0" type="curve" smooth="yes"/>
      <point x="787.0" y="-438.0"/>
      <point x="864.0" y="-5.0"/>
      <point x="853.0" y="210.0" type="curve"/>
      <point x="721.0" y="274.0" type="line"/>
      <point x="700.0" y="-96.0"/>
      <point x="573.0" y="-275.0"/>
      <point x="407.0" y="-273.0" type="curve" smooth="yes"/>
      <point x="310.0" y="-272.0"/>
      <point x="249.0" y="-222.0"/>
      <point x="248.0" y="-139.0" type="curve" smooth="yes"/>
      <point x="246.0" y="-8.0"/>
      <point x="361.0" y="63.0"/>
      <point x="440.0" y="105.0" type="curve"/>
      <point x="391.0" y="239.0" type="line"/>
      <point x="280.0" y="186.0"/>
      <point x="66.0" y="55.0"/>
      <point x="64.0" y="-144.0" type="curve" smooth="yes"/>
      <point x="62.0" y="-315.0"/>
      <point x="179.0" y="-434.0"/>
    </contour>
    <contour>
      <point x="936.0" y="-171.0" type="line"/>
      <point x="1083.0" y="-73.0" type="line"/>
      <point x="852.0" y="272.0" type="line"/>
      <point x="745.0" y="216.0" type="line"/>
    </contour>
    <contour>
      <point x="-19.0" y="1104.0" type="line"/>
      <point x="1030.0" y="1104.0" type="line"/>
      <point x="1030.0" y="1287.0" type="line"/>
      <point x="-19.0" y="1287.0" type="line"/>
    </contour>
  </outline>
</glyph>
<glyph name="da_ra-deva" format="2">
  <advance width="1033.0"/>
  <anchor x="114.0" y="0.0" name="nukta"/>
  <anchor x="976.0" y="-61.0" name="bottom"/>
  <anchor x="605.0" y="1287.0" name="candra"/>
  <anchor x="721.0" y="1287.0" name="top"/>
  <outline>
    <contour>
      <point x="309.0" y="-300.0" type="line" smooth="yes"/>
      <point x="813.0" y="120.0" type="line"/>
      <point x="756.0" y="211.0" type="line"/>
      <point x="188.0" y="-157.0" type="line"/>
    </contour>
    <component base="da-deva"/>
  </outline>
</glyph>
<glyph name="dh_na-deva" format="2">
  <advance width="1279.0"/>
  <anchor x="998.0" y="0.0" name="bottom"/>
  <anchor x="888.0" y="1287.0" name="candra"/>
  <anchor x="199.0" y="82.0" name="nukta"/>
  <anchor x="998.0" y="1287.0" name="top"/>
  <outline>
    <contour>
      <point x="500.0" y="-160.0" type="line"/>
      <point x="548.0" y="-124.0"/>
      <point x="568.0" y="-88.0"/>
      <point x="570.0" y="-55.0" type="curve" smooth="yes"/>
      <point x="572.0" y="-25.0"/>
      <point x="562.0" y="4.0"/>
      <point x="547.0" y="28.0" type="curve" smooth="yes"/>
      <point x="512.0" y="86.0" type="line"/>
      <point x="496.0" y="25.0" type="line"/>
      <point x="931.0" y="363.0" type="line"/>
      <point x="800.0" y="451.0" type="line"/>
      <point x="208.0" y="71.0" type="line"/>
      <point x="277.0" y="-68.0" type="line"/>
    </contour>
    <component base="dha-deva"/>
  </outline>
</glyph>
<glyph name="dh_ra-deva" format="2">
  <advance width="764.0"/>
  <outline>
    <contour>
      <point x="322.0" y="-85.0" type="line"/>
      <point x="921.0" y="350.0" type="line"/>
      <point x="874.0" y="488.0" type="line"/>
      <point x="204.0" y="76.0" type="line"/>
    </contour>
    <component base="dh-deva"/>
  </outline>
</glyph>
<glyph name="dieresiscomb.cap" format="2">
  <anchor x="317.0" y="1340.0" name="_top"/>
  <anchor x="317.0" y="1689.0" name="top"/>
  <outline>
    <contour>
      <point x="505.0" y="1471.0" type="curve" smooth="yes"/>
      <point x="576.0" y="1471.0"/>
      <point x="624.0" y="1522.0"/>
      <point x="624.0" y="1590.0" type="curve" smooth="yes"/>
      <point x="624.0" y="1659.0"/>
      <point x="576.0" y="1709.0"/>
      <point x="505.0" y="1709.0" type="curve" smooth="yes"/>
      <point x="436.0" y="1709.0"/>
      <point x="385.0" y="1659.0"/>
      <point x="385.0" y="1590.0" type="curve" smooth="yes"/>
      <point x="385.0" y="1522.0"/>
      <point x="436.0" y="1471.0"/>
    </contour>
    <contour>
      <point x="129.0" y="1471.0" type="curve" smooth="yes"/>
      <point x="198.0" y="1471.0"/>
      <point x="249.0" y="1522.0"/>
      <point x="249.0" y="1590.0" type="curve" smooth="yes"/>
      <point x="249.0" y="1659.0"/>
      <point x="198.0" y="1709.0"/>
      <point x="129.0" y="1709.0" type="curve" smooth="yes"/>
      <point x="58.0" y="1709.0"/>
      <point x="10.0" y="1659.0"/>
      <point x="10.0" y="1590.0" type="curve" smooth="yes"/>
      <point x="10.0" y="1522.0"/>
      <point x="58.0" y="1471.0"/>
    </contour>
  </outline>
</glyph>
<glyph name="eMatra_reph_candraBindu-deva" format="2">
  <advance width="537.0"/>
  <anchor x="238.0" y="1287.0" name="_top"/>
  <anchor x="216.0" y="1657.0" name="candra"/>
  <anchor x="216.0" y="1658.0" name="top"/>
  <outline>
    <contour>
      <point x="247.0" y="1240.0" type="curve"/>
      <point x="337.0" y="1276.0" type="line"/>
      <point x="315.0" y="1326.0"/>
      <point x="288.0" y="1389.0"/>
      <point x="288.0" y="1444.0" type="curve" smooth="yes"/>
      <point x="288.0" y="1557.0"/>
      <point x="345.0" y="1649.0"/>
      <point x="480.0" y="1649.0" type="curve" smooth="yes"/>
      <point x="534.0" y="1649.0"/>
      <point x="588.0" y="1639.0"/>
      <point x="651.0" y="1614.0" type="curve"/>
      <point x="696.0" y="1775.0" type="line"/>
      <point x="633.0" y="1803.0"/>
      <point x="550.0" y="1829.0"/>
      <point x="434.0" y="1822.0" type="curve" smooth="yes"/>
      <point x="239.0" y="1809.0"/>
      <point x="127.0" y="1673.0"/>
      <point x="127.0" y="1512.0" type="curve" smooth="yes"/>
      <point x="127.0" y="1438.0"/>
      <point x="141.0" y="1343.0"/>
    </contour>
    <contour>
      <point x="197.0" y="1227.0" type="line"/>
      <point x="330.0" y="1287.0" type="line"/>
      <point x="147.0" y="1784.0"/>
      <point x="104.0" y="1827.0"/>
      <point x="-202.0" y="1827.0" type="curve" smooth="yes"/>
      <point x="-248.0" y="1827.0"/>
      <point x="-315.0" y="1820.0"/>
      <point x="-369.0" y="1806.0" type="curve"/>
      <point x="-340.0" y="1632.0" type="line"/>
      <point x="-296.0" y="1637.0"/>
      <point x="-251.0" y="1643.0"/>
      <point x="-201.0" y="1643.0" type="curve" smooth="yes"/>
      <point x="-3.0" y="1643.0"/>
      <point x="43.0" y="1583.0"/>
      <point x="171.0" y="1287.0" type="curve" smooth="yes"/>
    </contour>
    <component base="candraBindu-deva" xScale="0.60348" yScale="0.60348" xOffset="363.0" yOffset="413.0"/>
  </outline>
</glyph>
<glyph name="five.tf" format="2">
  <advance width="1003.0"/>
  <outline>
    <contour>
      <point x="482.0" y="-179.0" type="curve" smooth="yes"/>
      <point x="720.0" y="-179.0"/>
      <point x="929.0" y="-8.0"/>
      <point x="929.0" y="284.0" type="curve" smooth="yes"/>
      <point x="929.0" y="567.0"/>
      <point x="755.0" y="693.0"/>
      <point x="520.0" y="693.0" type="curve" smooth="yes"/>
      <point x="450.0" y="693.0"/>
      <point x="397.0" y="676.0"/>
      <point x="340.0" y="648.0" type="curve"/>
      <point x="370.0" y="993.0" type="line"/>
      <point x="866.0" y="993.0" type="line"/>
      <point x="866.0" y="1179.0" type="line"/>
      <point x="180.0" y="1179.0" type="line"/>
      <point x="140.0" y="528.0" type="line"/>
      <point x="247.0" y="458.0" type="line"/>
      <point x="325.0" y="511.0"/>
      <point x="374.0" y="533.0"/>
      <point x="458.0" y="533.0" type="curve" smooth="yes"/>
      <point x="608.0" y="533.0"/>
      <point x="709.0" y="446.0"/>
      <point x="709.0" y="278.0" type="curve" smooth="yes"/>
      <point x="709.0" y="110.0"/>
      <point x="605.0" y="0.0"/>
      <point x="455.0" y="0.0" type="curve" smooth="yes"/>
      <point x="318.0" y="0.0"/>
      <point x="226.0" y="63.0"/>
      <point x="148.0" y="131.0" type="curve"/>
      <point x="46.0" y="-6.0" type="line"/>
      <point x="141.0" y="-96.0"/>
      <point x="271.0" y="-179.0"/>
    </contour>
  </outline>
</glyph>
<glyph name="four.lf" format="2">
  <advance width="1095.0"/>
  <outline>
    <contour>
      <point x="650.0" y="0.0" type="line"/>
      <point x="855.0" y="0.0" type="line"/>
      <point x="855.0" y="341.0" type="line"/>
      <point x="1022.0" y="341.0" type="line"/>
      <point x="1022.0" y="513.0" type="line"/>
      <point x="855.0" y="513.0" type="line"/>
      <point x="855.0" y="1343.0" type="line"/>
      <point x="599.0" y="1343.0" type="line"/>
      <point x="72.0" y="489.0" type="line"/>
      <point x="72.0" y="341.0" type="line"/>
      <point x="650.0" y="341.0" type="line"/>
    </contour>
    <contour>
      <point x="291.0" y="513.0" type="line"/>
      <point x="545.0" y="922.0" type="line"/>
      <point x="582.0" y="990.0"/>
      <point x="619.0" y="1067.0"/>
      <point x="651.0" y="1133.0" type="curve"/>
      <point x="660.0" y="1133.0" type="line"/>
      <point x="656.0" y="1059.0"/>
      <point x="650.0" y="928.0"/>
      <point x="650.0" y="853.0" type="curve" smooth="yes"/>
      <point x="650.0" y="513.0" type="line"/>
    </contour>
  </outline>
</glyph>
<glyph name="four.tf" format="2">
  <advance width="1003.0"/>
  <outline>
    <contour>
      <point x="603.0" y="-155.0" type="line"/>
      <point x="809.0" y="-155.0" type="line"/>
      <point x="809.0" y="184.0" type="line"/>
      <point x="976.0" y="184.0" type="line"/>
      <point x="976.0" y="355.0" type="line"/>
      <point x="809.0" y="355.0" type="line"/>
      <point x="809.0" y="1179.0" type="line"/>
      <point x="551.0" y="1179.0" type="line"/>
      <point x="25.0" y="332.0" type="line"/>
      <point x="25.0" y="184.0" type="line"/>
      <point x="603.0" y="184.0" type="line"/>
    </contour>
    <contour>
      <point x="245.0" y="355.0" type="line"/>
      <point x="499.0" y="753.0" type="line"/>
      <point x="536.0" y="822.0"/>
      <point x="573.0" y="897.0"/>
      <point x="606.0" y="965.0" type="curve"/>
      <point x="614.0" y="965.0" type="line"/>
      <point x="610.0" y="891.0"/>
      <point x="603.0" y="777.0"/>
      <point x="603.0" y="702.0" type="curve" smooth="yes"/>
      <point x="603.0" y="355.0" type="line"/>
    </contour>
  </outline>
</glyph>
<glyph name="g_ra-deva" format="2">
  <advance width="605.0"/>
  <anchor x="306.0" y="54.0" name="nukta"/>
  <outline>
    <contour>
      <point x="328.0" y="-24.0" type="line"/>
      <point x="907.0" y="443.0" type="line"/>
      <point x="794.0" y="552.0" type="line"/>
      <point x="202.0" y="127.0" type="line"/>
    </contour>
    <component base="g-deva"/>
  </outline>
</glyph>
<glyph name="hungarumlautcomb.cap" format="2">
  <anchor x="259.0" y="1340.0" name="_top"/>
  <anchor x="348.5" y="1679.0" name="top"/>
  <outline>
    <contour>
      <point x="353.0" y="1472.0" type="line"/>
      <point x="510.0" y="1472.0" type="line"/>
      <point x="687.0" y="1709.0" type="line"/>
      <point x="487.0" y="1709.0" type="line"/>
    </contour>
    <contour>
      <point x="10.0" y="1472.0" type="line"/>
      <point x="169.0" y="1472.0" type="line"/>
      <point x="344.0" y="1709.0" type="line"/>
      <point x="143.0" y="1709.0" type="line"/>
    </contour>
  </outline>
</glyph>
<glyph name="l_ra-deva" format="2">
  <advance width="891.0"/>
  <outline>
    <contour>
      <point x="682.0" y="91.0" type="line"/>
      <point x="1168.0" y="461.0" type="line"/>
      <point x="1103.0" y="624.0" type="line"/>
      <point x="556.0" y="242.0" type="line"/>
    </contour>
    <component base="l-deva"/>
  </outline>
</glyph>
<glyph name="m_ra-deva" format="2">
  <advance width="649.0"/>
  <outline>
    <contour>
      <point x="328.0" y="-70.0" type="line"/>
      <point x="901.0" y="372.0" type="line"/>
      <point x="795.0" y="495.0" type="line"/>
      <point x="202.0" y="82.0" type="line"/>
    </contour>
    <contour>
      <point x="187.0" y="382.0" type="line"/>
      <point x="396.0" y="572.0" type="line"/>
      <point x="397.0" y="1152.0" type="line"/>
      <point x="187.0" y="1152.0" type="line"/>
    </contour>
    <contour>
      <point x="230.0" y="286.0" type="line"/>
      <point x="370.0" y="287.0"/>
      <point x="398.0" y="354.0"/>
      <point x="398.0" y="435.0" type="curve" smooth="yes"/>
      <point x="398.0" y="659.0" type="line"/>
      <point x="232.0" y="659.0" type="line"/>
      <point x="45.0" y="635.0" type="line"/>
      <point x="45.0" y="492.0" type="line"/>
    </contour>
    <contour>
      <point x="193.0" y="469.0" type="line"/>
      <point x="849.0" y="469.0" type="line"/>
      <point x="849.0" y="655.0" type="line"/>
      <point x="193.0" y="655.0" type="line"/>
    </contour>
    <contour>
      <point x="-19.0" y="1104.0" type="line"/>
      <point x="657.0" y="1104.0" type="line"/>
      <point x="657.0" y="1287.0" type="line"/>
      <point x="-19.0" y="1287.0" type="line"/>
    </contour>
  </outline>
</glyph>
<glyph name="macroncomb.cap" format="2">
  <anchor x="279.0" y="1340.0" name="_top"/>
  <anchor x="279.0" y="1634.0" name="top"/>
  <outline>
    <contour>
      <point x="10.0" y="1485.0" type="line"/>
      <point x="548.0" y="1485.0" type="line"/>
      <point x="548.0" y="1634.0" type="line"/>
      <point x="10.0" y="1634.0" type="line"/>
    </contour>
  </outline>
</glyph>
<glyph name="n_th_va-deva" format="2">
  <advance width="2353.0"/>
  <anchor x="239.0" y="84.0" name="nukta"/>
  <anchor x="2073.0" y="0.0" name="bottom"/>
  <anchor x="1957.0" y="1287.0" name="candra"/>
  <anchor x="2073.0" y="1287.0" name="top"/>
  <outline>
    <contour>
      <point x="199.0" y="347.0" type="line"/>
      <point x="346.0" y="347.0"/>
      <point x="369.0" y="428.0"/>
      <point x="369.0" y="528.0" type="curve" smooth="yes"/>
      <point x="369.0" y="735.0" type="line"/>
      <point x="45.0" y="735.0" type="line"/>
      <point x="45.0" y="571.0" type="line"/>
    </contour>
    <contour>
      <point x="170.0" y="549.0" type="line"/>
      <point x="767.0" y="549.0" type="line"/>
      <point x="767.0" y="735.0" type="line"/>
      <point x="170.0" y="735.0" type="line"/>
    </contour>
    <contour>
      <point x="-19.0" y="1104.0" type="line"/>
      <point x="566.0" y="1104.0" type="line"/>
      <point x="566.0" y="1287.0" type="line"/>
      <point x="-19.0" y="1287.0" type="line"/>
    </contour>
    <component base="th-deva" xOffset="544.0"/>
    <component base="va-deva" xOffset="1262.0"/>
  </outline>
</glyph>
<glyph name="n_th_ya-deva" format="2">
  <advance width="2426.0"/>
  <anchor x="239.0" y="84.0" name="nukta"/>
  <anchor x="2145.0" y="0.0" name="bottom"/>
  <anchor x="2015.0" y="1287.0" name="candra"/>
  <anchor x="2145.0" y="1287.0" name="top"/>
  <outline>
    <contour>
      <point x="199.0" y="347.0" type="line"/>
      <point x="346.0" y="347.0"/>
      <point x="369.0" y="428.0"/>
      <point x="369.0" y="528.0" type="curve" smooth="yes"/>
      <point x="369.0" y="735.0" type="line"/>
      <point x="45.0" y="735.0" type="line"/>
      <point x="45.0" y="571.0" type="line"/>
    </contour>
    <contour>
      <point x="170.0" y="549.0" type="line"/>
      <point x="767.0" y="549.0" type="line"/>
      <point x="767.0" y="735.0" type="line"/>
      <point x="170.0" y="735.0" type="line"/>
    </contour>
    <contour>
      <point x="-19.0" y="1104.0" type="line"/>
      <point x="566.0" y="1104.0" type="line"/>
      <point x="566.0" y="1287.0" type="line"/>
      <point x="-19.0" y="1287.0" type="line"/>
    </contour>
    <component base="th-deva" xOffset="544.0"/>
    <component base="ya-deva" xOffset="1262.0"/>
  </outline>
</glyph>
<glyph name="n_tha-deva" format="2">
  <advance width="1803.0"/>
  <anchor x="239.0" y="84.0" name="nukta"/>
  <anchor x="1522.0" y="0.0" name="bottom"/>
  <anchor x="1431.0" y="1287.0" name="candra"/>
  <anchor x="1525.0" y="1287.0" name="top"/>
  <outline>
    <contour>
      <point x="199.0" y="347.0" type="line"/>
      <point x="346.0" y="347.0"/>
      <point x="369.0" y="428.0"/>
      <point x="369.0" y="528.0" type="curve" smooth="yes"/>
      <point x="369.0" y="735.0" type="line"/>
      <point x="45.0" y="735.0" type="line"/>
      <point x="45.0" y="571.0" type="line"/>
    </contour>
    <contour>
      <point x="170.0" y="549.0" type="line"/>
      <point x="767.0" y="549.0" type="line"/>
      <point x="767.0" y="735.0" type="line"/>
      <point x="170.0" y="735.0" type="line"/>
    </contour>
    <contour>
      <point x="-19.0" y="1104.0" type="line"/>
      <point x="566.0" y="1104.0" type="line"/>
      <point x="566.0" y="1287.0" type="line"/>
      <point x="-19.0" y="1287.0" type="line"/>
    </contour>
    <component base="tha-deva" xOffset="544.0"/>
  </outline>
</glyph>
<glyph name="nine.osf" format="2">
  <advance width="1082.0"/>
  <outline>
    <contour>
      <point x="488.0" y="-190.0" type="curve" smooth="yes"/>
      <point x="758.0" y="-190.0"/>
      <point x="965.0" y="37.0"/>
      <point x="965.0" y="534.0" type="curve" smooth="yes"/>
      <point x="965.0" y="1019.0"/>
      <point x="772.0" y="1202.0"/>
      <point x="497.0" y="1202.0" type="curve" smooth="yes"/>
      <point x="273.0" y="1202.0"/>
      <point x="75.0" y="1019.0"/>
      <point x="75.0" y="762.0" type="curve" smooth="yes"/>
      <point x="75.0" y="491.0"/>
      <point x="232.0" y="336.0"/>
      <point x="456.0" y="336.0" type="curve" smooth="yes"/>
      <point x="568.0" y="336.0"/>
      <point x="681.0" y="385.0"/>
      <point x="751.0" y="483.0" type="curve"/>
      <point x="748.0" y="119.0"/>
      <point x="646.0" y="-10.0"/>
      <point x="477.0" y="-10.0" type="curve" smooth="yes"/>
      <point x="397.0" y="-10.0"/>
      <point x="297.0" y="33.0"/>
      <point x="255.0" y="85.0" type="curve"/>
      <point x="145.0" y="-50.0" type="line"/>
      <point x="233.0" y="-135.0"/>
      <point x="337.0" y="-190.0"/>
    </contour>
    <contour>
      <point x="496.0" y="496.0" type="curve" smooth="yes"/>
      <point x="358.0" y="496.0"/>
      <point x="282.0" y="604.0"/>
      <point x="282.0" y="762.0" type="curve" smooth="yes"/>
      <point x="282.0" y="924.0"/>
      <point x="385.0" y="1034.0"/>
      <point x="501.0" y="1034.0" type="curve" smooth="yes"/>
      <point x="654.0" y="1034.0"/>
      <point x="746.0" y="914.0"/>
      <point x="746.0" y="643.0" type="curve"/>
      <point x="670.0" y="530.0"/>
      <point x="573.0" y="496.0"/>
    </contour>
  </outline>
</glyph>
<glyph name="nine.tf" format="2">
  <advance width="1003.0"/>
  <outline>
    <contour>
      <point x="455.0" y="-189.0" type="curve" smooth="yes"/>
      <point x="738.0" y="-189.0"/>
      <point x="930.0" y="39.0"/>
      <point x="930.0" y="535.0" type="curve" smooth="yes"/>
      <point x="930.0" y="1013.0"/>
      <point x="745.0" y="1203.0"/>
      <point x="469.0" y="1203.0" type="curve" smooth="yes"/>
      <point x="232.0" y="1203.0"/>
      <point x="53.0" y="1024.0"/>
      <point x="53.0" y="766.0" type="curve" smooth="yes"/>
      <point x="53.0" y="496.0"/>
      <point x="206.0" y="333.0"/>
      <point x="432.0" y="333.0" type="curve" smooth="yes"/>
      <point x="543.0" y="333.0"/>
      <point x="655.0" y="384.0"/>
      <point x="726.0" y="483.0" type="curve"/>
      <point x="720.0" y="111.0"/>
      <point x="613.0" y="-9.0"/>
      <point x="444.0" y="-9.0" type="curve" smooth="yes"/>
      <point x="364.0" y="-9.0"/>
      <point x="269.0" y="32.0"/>
      <point x="226.0" y="84.0" type="curve"/>
      <point x="116.0" y="-54.0" type="line"/>
      <point x="205.0" y="-140.0"/>
      <point x="304.0" y="-189.0"/>
    </contour>
    <contour>
      <point x="471.0" y="493.0" type="curve" smooth="yes"/>
      <point x="329.0" y="493.0"/>
      <point x="257.0" y="609.0"/>
      <point x="257.0" y="766.0" type="curve" smooth="yes"/>
      <point x="257.0" y="929.0"/>
      <point x="355.0" y="1035.0"/>
      <point x="472.0" y="1035.0" type="curve" smooth="yes"/>
      <point x="625.0" y="1035.0"/>
      <point x="715.0" y="918.0"/>
      <point x="721.0" y="642.0" type="curve"/>
      <point x="644.0" y="529.0"/>
      <point x="547.0" y="493.0"/>
    </contour>
  </outline>
</glyph>
<glyph name="p_na-deva" format="2">
  <advance width="1176.0"/>
  <anchor x="896.0" y="0.0" name="bottom"/>
  <anchor x="765.0" y="1287.0" name="candra"/>
  <anchor x="261.0" y="92.0" name="nukta"/>
  <anchor x="897.0" y="1287.0" name="top"/>
  <outline>
    <contour>
      <point x="400.0" y="-110.0" type="line"/>
      <point x="448.0" y="-74.0"/>
      <point x="468.0" y="-38.0"/>
      <point x="470.0" y="-5.0" type="curve" smooth="yes"/>
      <point x="472.0" y="25.0"/>
      <point x="462.0" y="54.0"/>
      <point x="447.0" y="78.0" type="curve" smooth="yes"/>
      <point x="412.0" y="136.0" type="line"/>
      <point x="396.0" y="75.0" type="line"/>
      <point x="831.0" y="413.0" type="line"/>
      <point x="700.0" y="501.0" type="line"/>
      <point x="108.0" y="121.0" type="line"/>
      <point x="177.0" y="-18.0" type="line"/>
    </contour>
    <component base="pa-deva"/>
  </outline>
</glyph>
<glyph name="p_ra-deva" format="2">
  <advance width="662.0"/>
  <outline>
    <contour>
      <point x="249.0" y="-51.0" type="line"/>
      <point x="821.0" y="471.0" type="line"/>
      <point x="697.0" y="575.0" type="line"/>
      <point x="123.0" y="100.0" type="line"/>
    </contour>
    <contour>
      <point x="508.0" y="345.0" type="curve" smooth="yes"/>
      <point x="663.0" y="345.0"/>
      <point x="806.0" y="425.0"/>
      <point x="885.0" y="551.0" type="curve"/>
      <point x="839.0" y="741.0" type="line"/>
      <point x="765.0" y="611.0"/>
      <point x="655.0" y="537.0"/>
      <point x="521.0" y="536.0" type="curve" smooth="yes"/>
      <point x="399.0" y="535.0"/>
      <point x="366.0" y="589.0"/>
      <point x="366.0" y="726.0" type="curve" smooth="yes"/>
      <point x="366.0" y="1133.0" type="line"/>
      <point x="152.0" y="1133.0" type="line"/>
      <point x="152.0" y="735.0" type="line" smooth="yes"/>
      <point x="152.0" y="479.0"/>
      <point x="277.0" y="345.0"/>
    </contour>
    <contour>
      <point x="-19.0" y="1104.0" type="line"/>
      <point x="676.0" y="1104.0" type="line"/>
      <point x="676.0" y="1287.0" type="line"/>
      <point x="-19.0" y="1287.0" type="line"/>
    </contour>
  </outline>
</glyph>
<glyph name="p_ta-deva" format="2">
  <advance width="1167.0"/>
  <anchor x="887.0" y="0.0" name="bottom"/>
  <anchor x="761.0" y="1287.0" name="candra"/>
  <anchor x="887.0" y="1287.0" name="top"/>
  <outline>
    <contour>
      <point x="370.0" y="-59.0" type="curve"/>
      <point x="530.0" y="49.0" type="line"/>
      <point x="453.0" y="155.0"/>
      <point x="359.0" y="310.0"/>
      <point x="359.0" y="402.0" type="curve" smooth="yes"/>
      <point x="359.0" y="487.0"/>
      <point x="417.0" y="510.0"/>
      <point x="507.0" y="508.0" type="curve" smooth="yes"/>
      <point x="927.0" y="508.0" type="line"/>
      <point x="927.0" y="706.0" type="line"/>
      <point x="489.0" y="706.0" type="line" smooth="yes"/>
      <point x="402.0" y="704.0"/>
      <point x="370.0" y="781.0"/>
      <point x="370.0" y="908.0" type="curve" smooth="yes"/>
      <point x="370.0" y="1144.0" type="line"/>
      <point x="162.0" y="1144.0" type="line"/>
      <point x="162.0" y="910.0" type="line" smooth="yes"/>
      <point x="162.0" y="762.0"/>
      <point x="203.0" y="648.0"/>
      <point x="293.0" y="609.0" type="curve"/>
      <point x="304.0" y="636.0" type="line"/>
      <point x="187.0" y="606.0"/>
      <point x="152.0" y="505.0"/>
      <point x="152.0" y="430.0" type="curve" smooth="yes"/>
      <point x="152.0" y="245.0"/>
      <point x="305.0" y="36.0"/>
    </contour>
    <contour>
      <point x="781.0" y="0.0" type="line"/>
      <point x="992.0" y="0.0" type="line"/>
      <point x="992.0" y="1199.0" type="line"/>
      <point x="781.0" y="1199.0" type="line"/>
    </contour>
    <contour>
      <point x="-19.0" y="1104.0" type="line"/>
      <point x="1186.0" y="1104.0" type="line"/>
      <point x="1186.0" y="1287.0" type="line"/>
      <point x="-19.0" y="1287.0" type="line"/>
    </contour>
  </outline>
</glyph>
<glyph name="ph_ra-deva" format="2">
  <advance width="1197.0"/>
  <anchor x="867.0" y="-10.0" name="bottom"/>
  <anchor x="531.0" y="1285.0" name="candra"/>
  <anchor x="459.0" y="84.0" name="nukta"/>
  <anchor x="872.0" y="1284.0" name="top"/>
  <outline>
    <contour>
      <point x="222.0" y="-31.0" type="line"/>
      <point x="797.0" y="431.0" type="line"/>
      <point x="670.0" y="535.0" type="line"/>
      <point x="96.0" y="120.0" type="line"/>
    </contour>
    <component base="ph-deva"/>
  </outline>
</glyph>
<glyph name="q_ba-deva" format="2">
  <advance width="2310.0"/>
  <anchor x="2030.0" y="27.0" name="bottom"/>
  <anchor x="1635.0" y="1287.0" name="candra"/>
  <anchor x="1266.0" y="82.0" name="nukta"/>
  <anchor x="2030.0" y="1287.0" name="top"/>
  <outline>
    <contour>
      <point x="690.0" y="0.0" type="line"/>
      <point x="900.0" y="0.0" type="line"/>
      <point x="900.0" y="1185.0" type="line"/>
      <point x="690.0" y="1185.0" type="line"/>
    </contour>
    <contour>
      <point x="408.0" y="196.0" type="curve" smooth="yes"/>
      <point x="557.0" y="196.0"/>
      <point x="711.0" y="264.0"/>
      <point x="788.0" y="391.0" type="curve"/>
      <point x="729.0" y="535.0" type="line"/>
      <point x="656.0" y="440.0"/>
      <point x="552.0" y="375.0"/>
      <point x="427.0" y="375.0" type="curve" smooth="yes"/>
      <point x="320.0" y="375.0"/>
      <point x="266.0" y="415.0"/>
      <point x="266.0" y="553.0" type="curve" smooth="yes"/>
      <point x="266.0" y="704.0"/>
      <point x="347.0" y="747.0"/>
      <point x="466.0" y="751.0" type="curve" smooth="yes"/>
      <point x="549.0" y="753.0"/>
      <point x="663.0" y="737.0"/>
      <point x="788.0" y="675.0" type="curve"/>
      <point x="788.0" y="789.0" type="line"/>
      <point x="720.0" y="877.0"/>
      <point x="595.0" y="941.0"/>
      <point x="427.0" y="941.0" type="curve" smooth="yes"/>
      <point x="198.0" y="941.0"/>
      <point x="55.0" y="820.0"/>
      <point x="55.0" y="564.0" type="curve" smooth="yes"/>
      <point x="55.0" y="399.0"/>
      <point x="134.0" y="196.0"/>
    </contour>
    <contour>
      <point x="1276.0" y="632.0" type="curve"/>
      <point x="1422.0" y="761.0" type="line"/>
      <point x="1372.0" y="840.0"/>
      <point x="1287.0" y="887.0"/>
      <point x="1174.0" y="887.0" type="curve" smooth="yes"/>
      <point x="1036.0" y="887.0"/>
      <point x="933.0" y="831.0"/>
      <point x="830.0" y="708.0" type="curve"/>
      <point x="830.0" y="404.0" type="line"/>
      <point x="994.0" y="634.0"/>
      <point x="1097.0" y="701.0"/>
      <point x="1165.0" y="701.0" type="curve" smooth="yes"/>
      <point x="1221.0" y="701.0"/>
      <point x="1260.0" y="678.0"/>
    </contour>
    <contour>
      <point x="175.0" y="88.0" type="curve" smooth="yes"/>
      <point x="92.0" y="88.0"/>
      <point x="56.0" y="53.0"/>
      <point x="56.0" y="-30.0" type="curve" smooth="yes"/>
      <point x="56.0" y="-112.0"/>
      <point x="92.0" y="-147.0"/>
      <point x="175.0" y="-147.0" type="curve" smooth="yes"/>
      <point x="258.0" y="-147.0"/>
      <point x="294.0" y="-112.0"/>
      <point x="294.0" y="-30.0" type="curve" smooth="yes"/>
      <point x="294.0" y="53.0"/>
      <point x="258.0" y="88.0"/>
    </contour>
    <contour>
      <point x="1638.0" y="174.0" type="curve" smooth="yes"/>
      <point x="1794.0" y="174.0"/>
      <point x="1948.0" y="230.0"/>
      <point x="2030.0" y="361.0" type="curve"/>
      <point x="1974.0" y="497.0" type="line"/>
      <point x="1879.0" y="392.0"/>
      <point x="1799.0" y="343.0"/>
      <point x="1646.0" y="343.0" type="curve" smooth="yes"/>
      <point x="1500.0" y="343.0"/>
      <point x="1457.0" y="409.0"/>
      <point x="1457.0" y="566.0" type="curve" smooth="yes"/>
      <point x="1457.0" y="719.0"/>
      <point x="1501.0" y="776.0"/>
      <point x="1666.0" y="781.0" type="curve" smooth="yes"/>
      <point x="1764.0" y="783.0"/>
      <point x="1884.0" y="766.0"/>
      <point x="2015.0" y="700.0" type="curve"/>
      <point x="2011.0" y="842.0" type="line"/>
      <point x="1909.0" y="916.0"/>
      <point x="1802.0" y="950.0"/>
      <point x="1663.0" y="950.0" type="curve" smooth="yes"/>
      <point x="1400.0" y="950.0"/>
      <point x="1252.0" y="825.0"/>
      <point x="1252.0" y="568.0" type="curve" smooth="yes"/>
      <point x="1252.0" y="292.0"/>
      <point x="1417.0" y="174.0"/>
    </contour>
    <contour>
      <point x="1882.0" y="289.0" type="line"/>
      <point x="1985.0" y="395.0" type="line"/>
      <point x="1530.0" y="851.0" type="line"/>
      <point x="1427.0" y="745.0" type="line"/>
    </contour>
    <contour>
      <point x="1925.0" y="0.0" type="line"/>
      <point x="2135.0" y="0.0" type="line"/>
      <point x="2135.0" y="1176.0" type="line"/>
      <point x="1925.0" y="1176.0" type="line"/>
    </contour>
    <contour>
      <point x="-19.0" y="1104.0" type="line"/>
      <point x="2329.0" y="1104.0" type="line"/>
      <point x="2329.0" y="1287.0" type="line"/>
      <point x="-19.0" y="1287.0" type="line"/>
    </contour>
  </outline>
</glyph>
<glyph name="q_qa-deva" format="2">
  <advance width="2740.0"/>
  <anchor x="2027.0" y="0.0" name="bottom"/>
  <anchor x="800.0" y="1287.0" name="candra"/>
  <anchor x="1221.0" y="-301.0" name="nukta"/>
  <anchor x="2010.0" y="1287.0" name="top"/>
  <outline>
    <contour>
      <point x="-19.0" y="1104.0" type="line"/>
      <point x="1549.0" y="1104.0" type="line"/>
      <point x="1549.0" y="1287.0" type="line"/>
      <point x="-19.0" y="1287.0" type="line"/>
    </contour>
    <contour>
      <point x="1191.0" y="1104.0" type="line"/>
      <point x="2759.0" y="1104.0" type="line"/>
      <point x="2759.0" y="1287.0" type="line"/>
      <point x="1191.0" y="1287.0" type="line"/>
    </contour>
    <contour>
      <point x="690.0" y="0.0" type="line"/>
      <point x="900.0" y="0.0" type="line"/>
      <point x="900.0" y="1185.0" type="line"/>
      <point x="690.0" y="1185.0" type="line"/>
    </contour>
    <contour>
      <point x="1900.0" y="0.0" type="line"/>
      <point x="2110.0" y="0.0" type="line"/>
      <point x="2110.0" y="1185.0" type="line"/>
      <point x="1900.0" y="1185.0" type="line"/>
    </contour>
    <contour>
      <point x="408.0" y="196.0" type="curve" smooth="yes"/>
      <point x="557.0" y="196.0"/>
      <point x="711.0" y="264.0"/>
      <point x="788.0" y="391.0" type="curve"/>
      <point x="729.0" y="535.0" type="line"/>
      <point x="656.0" y="440.0"/>
      <point x="552.0" y="375.0"/>
      <point x="427.0" y="375.0" type="curve" smooth="yes"/>
      <point x="320.0" y="375.0"/>
      <point x="266.0" y="415.0"/>
      <point x="266.0" y="553.0" type="curve" smooth="yes"/>
      <point x="266.0" y="704.0"/>
      <point x="347.0" y="747.0"/>
      <point x="466.0" y="751.0" type="curve" smooth="yes"/>
      <point x="549.0" y="753.0"/>
      <point x="663.0" y="737.0"/>
      <point x="788.0" y="675.0" type="curve"/>
      <point x="788.0" y="789.0" type="line"/>
      <point x="720.0" y="877.0"/>
      <point x="595.0" y="941.0"/>
      <point x="427.0" y="941.0" type="curve" smooth="yes"/>
      <point x="198.0" y="941.0"/>
      <point x="55.0" y="820.0"/>
      <point x="55.0" y="564.0" type="curve" smooth="yes"/>
      <point x="55.0" y="399.0"/>
      <point x="134.0" y="196.0"/>
    </contour>
    <contour>
      <point x="1618.0" y="196.0" type="curve" smooth="yes"/>
      <point x="1767.0" y="196.0"/>
      <point x="1921.0" y="264.0"/>
      <point x="1998.0" y="391.0" type="curve"/>
      <point x="1939.0" y="535.0" type="line"/>
      <point x="1866.0" y="440.0"/>
      <point x="1762.0" y="375.0"/>
      <point x="1637.0" y="375.0" type="curve" smooth="yes"/>
      <point x="1530.0" y="375.0"/>
      <point x="1476.0" y="415.0"/>
      <point x="1476.0" y="553.0" type="curve" smooth="yes"/>
      <point x="1476.0" y="704.0"/>
      <point x="1557.0" y="747.0"/>
      <point x="1676.0" y="751.0" type="curve" smooth="yes"/>
      <point x="1759.0" y="754.0"/>
      <point x="1873.0" y="737.0"/>
      <point x="1998.0" y="675.0" type="curve"/>
      <point x="1998.0" y="789.0" type="line"/>
      <point x="1930.0" y="877.0"/>
      <point x="1805.0" y="941.0"/>
      <point x="1637.0" y="941.0" type="curve" smooth="yes"/>
      <point x="1408.0" y="941.0"/>
      <point x="1265.0" y="820.0"/>
      <point x="1265.0" y="564.0" type="curve" smooth="yes"/>
      <point x="1265.0" y="399.0"/>
      <point x="1344.0" y="196.0"/>
    </contour>
    <contour>
      <point x="1276.0" y="632.0" type="curve"/>
      <point x="1422.0" y="761.0" type="line"/>
      <point x="1372.0" y="840.0"/>
      <point x="1287.0" y="887.0"/>
      <point x="1174.0" y="887.0" type="curve" smooth="yes"/>
      <point x="1036.0" y="887.0"/>
      <point x="933.0" y="831.0"/>
      <point x="830.0" y="708.0" type="curve"/>
      <point x="830.0" y="404.0" type="line"/>
      <point x="994.0" y="634.0"/>
      <point x="1097.0" y="701.0"/>
      <point x="1165.0" y="701.0" type="curve" smooth="yes"/>
      <point x="1221.0" y="701.0"/>
      <point x="1260.0" y="678.0"/>
    </contour>
    <contour>
      <point x="2509.0" y="125.0" type="line"/>
      <point x="2620.0" y="244.0"/>
      <point x="2686.0" y="391.0"/>
      <point x="2686.0" y="548.0" type="curve" smooth="yes"/>
      <point x="2686.0" y="751.0"/>
      <point x="2577.0" y="887.0"/>
      <point x="2384.0" y="887.0" type="curve" smooth="yes"/>
      <point x="2246.0" y="887.0"/>
      <point x="2143.0" y="831.0"/>
      <point x="2040.0" y="708.0" type="curve"/>
      <point x="2040.0" y="404.0" type="line"/>
      <point x="2204.0" y="634.0"/>
      <point x="2307.0" y="701.0"/>
      <point x="2375.0" y="701.0" type="curve" smooth="yes"/>
      <point x="2452.0" y="701.0"/>
      <point x="2496.0" y="658.0"/>
      <point x="2496.0" y="569.0" type="curve" smooth="yes"/>
      <point x="2496.0" y="463.0"/>
      <point x="2440.0" y="360.0"/>
      <point x="2356.0" y="242.0" type="curve"/>
    </contour>
    <contour>
      <point x="175.0" y="88.0" type="curve" smooth="yes"/>
      <point x="92.0" y="88.0"/>
      <point x="56.0" y="53.0"/>
      <point x="56.0" y="-30.0" type="curve" smooth="yes"/>
      <point x="56.0" y="-112.0"/>
      <point x="92.0" y="-147.0"/>
      <point x="175.0" y="-147.0" type="curve" smooth="yes"/>
      <point x="258.0" y="-147.0"/>
      <point x="294.0" y="-112.0"/>
      <point x="294.0" y="-30.0" type="curve" smooth="yes"/>
      <point x="294.0" y="53.0"/>
      <point x="258.0" y="88.0"/>
    </contour>
    <contour>
      <point x="1385.0" y="88.0" type="curve" smooth="yes"/>
      <point x="1302.0" y="88.0"/>
      <point x="1266.0" y="53.0"/>
      <point x="1266.0" y="-30.0" type="curve" smooth="yes"/>
      <point x="1266.0" y="-112.0"/>
      <point x="1302.0" y="-147.0"/>
      <point x="1385.0" y="-147.0" type="curve" smooth="yes"/>
      <point x="1468.0" y="-147.0"/>
      <point x="1504.0" y="-112.0"/>
      <point x="1504.0" y="-30.0" type="curve" smooth="yes"/>
      <point x="1504.0" y="53.0"/>
      <point x="1468.0" y="88.0"/>
    </contour>
  </outline>
</glyph>
<glyph name="q_ta-deva" format="2">
  <advance width="2287.0"/>
  <anchor x="805.0" y="-54.0" name="bottom"/>
  <anchor x="803.0" y="1288.0" name="candra"/>
  <anchor x="1105.0" y="238.0" name="nukta"/>
  <anchor x="1942.0" y="1290.0" name="top"/>
  <outline>
    <contour>
      <point x="690.0" y="0.0" type="line"/>
      <point x="900.0" y="0.0" type="line"/>
      <point x="900.0" y="1185.0" type="line"/>
      <point x="690.0" y="1185.0" type="line"/>
    </contour>
    <contour>
      <point x="408.0" y="196.0" type="curve" smooth="yes"/>
      <point x="557.0" y="196.0"/>
      <point x="711.0" y="264.0"/>
      <point x="788.0" y="391.0" type="curve"/>
      <point x="729.0" y="535.0" type="line"/>
      <point x="656.0" y="440.0"/>
      <point x="552.0" y="375.0"/>
      <point x="427.0" y="375.0" type="curve" smooth="yes"/>
      <point x="320.0" y="375.0"/>
      <point x="266.0" y="415.0"/>
      <point x="266.0" y="553.0" type="curve" smooth="yes"/>
      <point x="266.0" y="704.0"/>
      <point x="347.0" y="747.0"/>
      <point x="466.0" y="751.0" type="curve" smooth="yes"/>
      <point x="549.0" y="753.0"/>
      <point x="663.0" y="737.0"/>
      <point x="788.0" y="675.0" type="curve"/>
      <point x="788.0" y="789.0" type="line"/>
      <point x="720.0" y="877.0"/>
      <point x="595.0" y="941.0"/>
      <point x="427.0" y="941.0" type="curve" smooth="yes"/>
      <point x="198.0" y="941.0"/>
      <point x="55.0" y="820.0"/>
      <point x="55.0" y="564.0" type="curve" smooth="yes"/>
      <point x="55.0" y="399.0"/>
      <point x="134.0" y="196.0"/>
    </contour>
    <contour>
      <point x="1336.0" y="632.0" type="curve"/>
      <point x="1482.0" y="761.0" type="line"/>
      <point x="1432.0" y="840.0"/>
      <point x="1347.0" y="887.0"/>
      <point x="1234.0" y="887.0" type="curve" smooth="yes"/>
      <point x="1096.0" y="887.0"/>
      <point x="933.0" y="831.0"/>
      <point x="830.0" y="708.0" type="curve"/>
      <point x="830.0" y="404.0" type="line"/>
      <point x="920.0" y="593.0"/>
      <point x="1046.0" y="701.0"/>
      <point x="1225.0" y="701.0" type="curve" smooth="yes"/>
      <point x="1281.0" y="701.0"/>
      <point x="1320.0" y="678.0"/>
    </contour>
    <contour>
      <point x="75.0" y="118.0" type="curve" smooth="yes"/>
      <point x="-8.0" y="118.0"/>
      <point x="-44.0" y="83.0"/>
      <point x="-44.0" y="0.0" type="curve" smooth="yes"/>
      <point x="-44.0" y="-82.0"/>
      <point x="-8.0" y="-117.0"/>
      <point x="75.0" y="-117.0" type="curve" smooth="yes"/>
      <point x="158.0" y="-117.0"/>
      <point x="194.0" y="-82.0"/>
      <point x="194.0" y="0.0" type="curve" smooth="yes"/>
      <point x="194.0" y="83.0"/>
      <point x="158.0" y="118.0"/>
    </contour>
    <contour>
      <point x="1488.0" y="-38.0" type="curve"/>
      <point x="1652.0" y="71.0" type="line"/>
      <point x="1499.0" y="302.0"/>
      <point x="1453.0" y="439.0"/>
      <point x="1453.0" y="534.0" type="curve" smooth="yes"/>
      <point x="1453.0" y="633.0"/>
      <point x="1504.0" y="661.0"/>
      <point x="1617.0" y="661.0" type="curve" smooth="yes"/>
      <point x="2041.0" y="661.0" type="line"/>
      <point x="1995.0" y="858.0" type="line"/>
      <point x="1597.0" y="858.0" type="line" smooth="yes"/>
      <point x="1383.0" y="858.0"/>
      <point x="1239.0" y="750.0"/>
      <point x="1239.0" y="566.0" type="curve" smooth="yes"/>
      <point x="1239.0" y="365.0"/>
      <point x="1357.0" y="131.0"/>
    </contour>
    <contour>
      <point x="1901.0" y="0.0" type="line"/>
      <point x="2111.0" y="0.0" type="line"/>
      <point x="2111.0" y="1199.0" type="line"/>
      <point x="1901.0" y="1199.0" type="line"/>
    </contour>
    <contour>
      <point x="-19.0" y="1104.0" type="line"/>
      <point x="2306.0" y="1104.0" type="line"/>
      <point x="2306.0" y="1287.0" type="line"/>
      <point x="-19.0" y="1287.0" type="line"/>
    </contour>
  </outline>
</glyph>
<glyph name="s_na-deva" format="2">
  <advance width="1406.0"/>
  <anchor x="1126.0" y="0.0" name="bottom"/>
  <anchor x="647.0" y="1287.0" name="candra"/>
  <anchor x="115.0" y="82.0" name="nukta"/>
  <anchor x="1126.0" y="1287.0" name="top"/>
  <outline>
    <contour>
      <point x="388.0" y="-16.0" type="line"/>
      <point x="558.0" y="106.0" type="line"/>
      <point x="266.0" y="557.0" type="line"/>
      <point x="259.0" y="547.0" type="line"/>
      <point x="275.0" y="537.0"/>
      <point x="300.0" y="532.0"/>
      <point x="326.0" y="532.0" type="curve" smooth="yes"/>
      <point x="439.0" y="532.0"/>
      <point x="532.0" y="618.0"/>
      <point x="532.0" y="795.0" type="curve" smooth="yes"/>
      <point x="532.0" y="1176.0" type="line"/>
      <point x="322.0" y="1176.0" type="line"/>
      <point x="322.0" y="801.0" type="line" smooth="yes"/>
      <point x="322.0" y="729.0"/>
      <point x="300.0" y="692.0"/>
      <point x="251.0" y="692.0" type="curve" smooth="yes"/>
      <point x="216.0" y="692.0"/>
      <point x="186.0" y="706.0"/>
      <point x="148.0" y="738.0" type="curve"/>
      <point x="13.0" y="627.0" type="line"/>
    </contour>
    <contour>
      <point x="751.0" y="496.0" type="curve" smooth="yes"/>
      <point x="845.0" y="496.0"/>
      <point x="1036.0" y="508.0"/>
      <point x="1110.0" y="532.0" type="curve"/>
      <point x="1110.0" y="734.0" type="line"/>
      <point x="1030.0" y="703.0"/>
      <point x="829.0" y="685.0"/>
      <point x="730.0" y="685.0" type="curve" smooth="yes"/>
      <point x="624.0" y="685.0"/>
      <point x="520.0" y="698.0"/>
      <point x="448.0" y="733.0" type="curve"/>
      <point x="387.0" y="568.0" type="line"/>
      <point x="492.0" y="519.0"/>
      <point x="624.0" y="496.0"/>
    </contour>
    <contour>
      <point x="1021.0" y="0.0" type="line"/>
      <point x="1231.0" y="0.0" type="line"/>
      <point x="1231.0" y="1141.0" type="line"/>
      <point x="1021.0" y="1141.0" type="line"/>
    </contour>
    <contour>
      <point x="-47.0" y="1104.0" type="line"/>
      <point x="1425.0" y="1104.0" type="line"/>
      <point x="1425.0" y="1287.0" type="line"/>
      <point x="-47.0" y="1287.0" type="line"/>
    </contour>
    <contour>
      <point x="834.0" y="98.0" type="line"/>
      <point x="879.0" y="132.0"/>
      <point x="898.0" y="165.0"/>
      <point x="900.0" y="197.0" type="curve" smooth="yes"/>
      <point x="902.0" y="225.0"/>
      <point x="892.0" y="252.0"/>
      <point x="878.0" y="275.0" type="curve" smooth="yes"/>
      <point x="845.0" y="329.0" type="line"/>
      <point x="830.0" y="272.0" type="line"/>
      <point x="1153.0" y="551.0" type="line"/>
      <point x="1117.0" y="673.0" type="line"/>
      <point x="559.0" y="315.0" type="line"/>
      <point x="624.0" y="184.0" type="line"/>
    </contour>
  </outline>
</glyph>
<glyph name="six.lf" format="2">
  <advance width="1104.0"/>
  <outline>
    <contour>
      <point x="588.0" y="-25.0" type="curve" smooth="yes"/>
      <point x="809.0" y="-25.0"/>
      <point x="993.0" y="145.0"/>
      <point x="993.0" y="403.0" type="curve" smooth="yes"/>
      <point x="993.0" y="704.0"/>
      <point x="838.0" y="842.0"/>
      <point x="614.0" y="842.0" type="curve" smooth="yes"/>
      <point x="518.0" y="842.0"/>
      <point x="403.0" y="783.0"/>
      <point x="326.0" y="689.0" type="curve"/>
      <point x="331.0" y="1065.0"/>
      <point x="474.0" y="1187.0"/>
      <point x="642.0" y="1187.0" type="curve" smooth="yes"/>
      <point x="721.0" y="1187.0"/>
      <point x="798.0" y="1156.0"/>
      <point x="847.0" y="1098.0" type="curve"/>
      <point x="963.0" y="1231.0" type="line"/>
      <point x="886.0" y="1313.0"/>
      <point x="783.0" y="1367.0"/>
      <point x="630.0" y="1367.0" type="curve" smooth="yes"/>
      <point x="365.0" y="1367.0"/>
      <point x="121.0" y="1158.0"/>
      <point x="121.0" y="642.0" type="curve" smooth="yes"/>
      <point x="121.0" y="202.0"/>
      <point x="325.0" y="-25.0"/>
    </contour>
    <contour>
      <point x="585.0" y="144.0" type="curve" smooth="yes"/>
      <point x="448.0" y="144.0"/>
      <point x="344.0" y="281.0"/>
      <point x="331.0" y="527.0" type="curve"/>
      <point x="408.0" y="639.0"/>
      <point x="498.0" y="683.0"/>
      <point x="574.0" y="683.0" type="curve" smooth="yes"/>
      <point x="711.0" y="683.0"/>
      <point x="789.0" y="582.0"/>
      <point x="789.0" y="403.0" type="curve" smooth="yes"/>
      <point x="789.0" y="241.0"/>
      <point x="699.0" y="144.0"/>
    </contour>
  </outline>
</glyph>
<glyph name="six.osf" format="2">
  <advance width="1082.0"/>
  <outline>
    <contour>
      <point x="577.0" y="-25.0" type="curve" smooth="yes"/>
      <point x="797.0" y="-25.0"/>
      <point x="981.0" y="145.0"/>
      <point x="981.0" y="403.0" type="curve" smooth="yes"/>
      <point x="981.0" y="704.0"/>
      <point x="827.0" y="842.0"/>
      <point x="603.0" y="842.0" type="curve" smooth="yes"/>
      <point x="507.0" y="842.0"/>
      <point x="392.0" y="783.0"/>
      <point x="315.0" y="689.0" type="curve"/>
      <point x="320.0" y="1065.0"/>
      <point x="463.0" y="1187.0"/>
      <point x="630.0" y="1187.0" type="curve" smooth="yes"/>
      <point x="710.0" y="1187.0"/>
      <point x="787.0" y="1156.0"/>
      <point x="836.0" y="1098.0" type="curve"/>
      <point x="951.0" y="1231.0" type="line"/>
      <point x="875.0" y="1313.0"/>
      <point x="771.0" y="1367.0"/>
      <point x="619.0" y="1367.0" type="curve" smooth="yes"/>
      <point x="354.0" y="1367.0"/>
      <point x="110.0" y="1158.0"/>
      <point x="110.0" y="642.0" type="curve" smooth="yes"/>
      <point x="110.0" y="202.0"/>
      <point x="314.0" y="-25.0"/>
    </contour>
    <contour>
      <point x="574.0" y="144.0" type="curve" smooth="yes"/>
      <point x="436.0" y="144.0"/>
      <point x="333.0" y="281.0"/>
      <point x="320.0" y="527.0" type="curve"/>
      <point x="396.0" y="639.0"/>
      <point x="487.0" y="683.0"/>
      <point x="563.0" y="683.0" type="curve" smooth="yes"/>
      <point x="700.0" y="683.0"/>
      <point x="778.0" y="582.0"/>
      <point x="778.0" y="403.0" type="curve" smooth="yes"/>
      <point x="778.0" y="241.0"/>
      <point x="687.0" y="144.0"/>
    </contour>
  </outline>
</glyph>
<glyph name="t_k_ssa-deva" format="2">
  <advance width="2002.0"/>
  <anchor x="23.0" y="54.0" name="nukta"/>
  <anchor x="1727.0" y="27.0" name="bottom"/>
  <anchor x="1391.0" y="1287.0" name="candra"/>
  <anchor x="1727.0" y="1287.0" name="top"/>
  <outline>
    <contour>
      <point x="310.0" y="-2.0" type="curve"/>
      <point x="474.0" y="107.0" type="line"/>
      <point x="321.0" y="338.0"/>
      <point x="275.0" y="449.0"/>
      <point x="275.0" y="544.0" type="curve" smooth="yes"/>
      <point x="275.0" y="643.0"/>
      <point x="326.0" y="691.0"/>
      <point x="439.0" y="691.0" type="curve" smooth="yes"/>
      <point x="960.0" y="691.0" type="line"/>
      <point x="916.0" y="868.0" type="line"/>
      <point x="419.0" y="868.0" type="line" smooth="yes"/>
      <point x="205.0" y="868.0"/>
      <point x="61.0" y="760.0"/>
      <point x="61.0" y="576.0" type="curve" smooth="yes"/>
      <point x="61.0" y="375.0"/>
      <point x="179.0" y="167.0"/>
    </contour>
    <contour>
      <point x="-19.0" y="1104.0" type="line"/>
      <point x="640.0" y="1104.0" type="line"/>
      <point x="640.0" y="1287.0" type="line"/>
      <point x="-19.0" y="1287.0" type="line"/>
    </contour>
    <component base="k_ssa-deva" xOffset="585.0"/>
  </outline>
</glyph>
<glyph name="three.osf" format="2">
  <advance width="1042.0"/>
  <outline>
    <contour>
      <point x="489.0" y="-179.0" type="curve" smooth="yes"/>
      <point x="737.0" y="-179.0"/>
      <point x="939.0" y="-36.0"/>
      <point x="939.0" y="206.0" type="curve" smooth="yes"/>
      <point x="939.0" y="388.0"/>
      <point x="820.0" y="499.0"/>
      <point x="666.0" y="539.0" type="curve"/>
      <point x="666.0" y="547.0" type="line"/>
      <point x="806.0" y="601.0"/>
      <point x="895.0" y="704.0"/>
      <point x="895.0" y="857.0" type="curve" smooth="yes"/>
      <point x="895.0" y="1079.0"/>
      <point x="726.0" y="1203.0"/>
      <point x="483.0" y="1203.0" type="curve" smooth="yes"/>
      <point x="327.0" y="1203.0"/>
      <point x="202.0" y="1144.0"/>
      <point x="94.0" y="1047.0" type="curve"/>
      <point x="208.0" y="911.0" type="line"/>
      <point x="287.0" y="987.0"/>
      <point x="371.0" y="1029.0"/>
      <point x="473.0" y="1029.0" type="curve" smooth="yes"/>
      <point x="599.0" y="1029.0"/>
      <point x="673.0" y="956.0"/>
      <point x="673.0" y="840.0" type="curve" smooth="yes"/>
      <point x="673.0" y="712.0"/>
      <point x="588.0" y="616.0"/>
      <point x="328.0" y="616.0" type="curve"/>
      <point x="328.0" y="454.0" type="line"/>
      <point x="627.0" y="454.0"/>
      <point x="719.0" y="361.0"/>
      <point x="719.0" y="218.0" type="curve" smooth="yes"/>
      <point x="719.0" y="86.0"/>
      <point x="618.0" y="0.0"/>
      <point x="471.0" y="0.0" type="curve" smooth="yes"/>
      <point x="334.0" y="0.0"/>
      <point x="238.0" y="61.0"/>
      <point x="160.0" y="139.0" type="curve"/>
      <point x="54.0" y="-2.0" type="line"/>
      <point x="144.0" y="-100.0"/>
      <point x="279.0" y="-179.0"/>
    </contour>
  </outline>
</glyph>
<glyph name="tt_tt_ya-deva" format="2">
  <advance width="2106.0"/>
  <anchor x="1834.0" y="-33.0" name="bottom"/>
  <anchor x="1428.0" y="1287.0" name="candra"/>
  <anchor x="1826.0" y="1287.0" name="top"/>
  <outline>
    <contour>
      <point x="894.0" y="1104.0" type="line"/>
      <point x="2125.0" y="1104.0" type="line"/>
      <point x="2125.0" y="1287.0" type="line"/>
      <point x="894.0" y="1287.0" type="line"/>
    </contour>
    <contour>
      <point x="1461.0" y="127.0" type="curve" smooth="yes"/>
      <point x="1590.0" y="127.0"/>
      <point x="1683.0" y="173.0"/>
      <point x="1764.0" y="257.0" type="curve"/>
      <point x="1776.0" y="513.0" type="line"/>
      <point x="1692.0" y="376.0"/>
      <point x="1564.0" y="319.0"/>
      <point x="1444.0" y="319.0" type="curve" smooth="yes"/>
      <point x="1320.0" y="319.0"/>
      <point x="1224.0" y="380.0"/>
      <point x="1188.0" y="526.0" type="curve"/>
      <point x="1171.0" y="448.0" type="line"/>
      <point x="1280.0" y="484.0"/>
      <point x="1439.0" y="549.0"/>
      <point x="1439.0" y="737.0" type="curve" smooth="yes"/>
      <point x="1439.0" y="926.0"/>
      <point x="1322.0" y="984.0"/>
      <point x="1119.0" y="983.0" type="curve" smooth="yes"/>
      <point x="801.0" y="982.0" type="line"/>
      <point x="812.0" y="807.0" type="line"/>
      <point x="1148.0" y="807.0" type="line" smooth="yes"/>
      <point x="1204.0" y="807.0"/>
      <point x="1247.0" y="792.0"/>
      <point x="1247.0" y="738.0" type="curve" smooth="yes"/>
      <point x="1247.0" y="661.0"/>
      <point x="1175.0" y="620.0"/>
      <point x="990.0" y="575.0" type="curve"/>
      <point x="1041.0" y="289.0"/>
      <point x="1213.0" y="127.0"/>
    </contour>
    <contour>
      <point x="1737.0" y="0.0" type="line"/>
      <point x="1947.0" y="0.0" type="line"/>
      <point x="1947.0" y="1131.0" type="line"/>
      <point x="1737.0" y="1131.0" type="line"/>
    </contour>
    <component base="tt_tta-deva"/>
  </outline>
</glyph>
<glyph name="two.lf" format="2">
  <advance width="1045.0"/>
  <outline>
    <contour>
      <point x="90.0" y="0.0" type="line"/>
      <point x="939.0" y="0.0" type="line"/>
      <point x="939.0" y="187.0" type="line"/>
      <point x="628.0" y="187.0" type="line"/>
      <point x="563.0" y="187.0"/>
      <point x="474.0" y="180.0"/>
      <point x="405.0" y="173.0" type="curve"/>
      <point x="671.0" y="458.0"/>
      <point x="886.0" y="734.0"/>
      <point x="886.0" y="979.0" type="curve" smooth="yes"/>
      <point x="886.0" y="1218.0"/>
      <point x="734.0" y="1367.0"/>
      <point x="486.0" y="1367.0" type="curve" smooth="yes"/>
      <point x="313.0" y="1367.0"/>
      <point x="193.0" y="1299.0"/>
      <point x="73.0" y="1169.0" type="curve"/>
      <point x="196.0" y="1047.0" type="line"/>
      <point x="267.0" y="1129.0"/>
      <point x="355.0" y="1192.0"/>
      <point x="458.0" y="1192.0" type="curve" smooth="yes"/>
      <point x="605.0" y="1192.0"/>
      <point x="675.0" y="1108.0"/>
      <point x="675.0" y="967.0" type="curve" smooth="yes"/>
      <point x="675.0" y="759.0"/>
      <point x="456.0" y="489.0"/>
      <point x="90.0" y="127.0" type="curve"/>
    </contour>
  </outline>
</glyph>
<glyph name="two.osf" format="2">
  <advance width="1034.0"/>
  <outline>
    <contour>
      <point x="96.0" y="0.0" type="line"/>
      <point x="927.0" y="0.0" type="line"/>
      <point x="927.0" y="187.0" type="line"/>
      <point x="645.0" y="187.0" type="line"/>
      <point x="580.0" y="187.0"/>
      <point x="492.0" y="180.0"/>
      <point x="423.0" y="173.0" type="curve"/>
      <point x="690.0" y="424.0"/>
      <point x="872.0" y="614.0"/>
      <point x="872.0" y="824.0" type="curve" smooth="yes"/>
      <point x="872.0" y="1063.0"/>
      <point x="726.0" y="1203.0"/>
      <point x="476.0" y="1203.0" type="curve" smooth="yes"/>
      <point x="302.0" y="1203.0"/>
      <point x="178.0" y="1132.0"/>
      <point x="77.0" y="1012.0" type="curve"/>
      <point x="198.0" y="893.0" type="line"/>
      <point x="263.0" y="966.0"/>
      <point x="346.0" y="1029.0"/>
      <point x="452.0" y="1029.0" type="curve" smooth="yes"/>
      <point x="600.0" y="1029.0"/>
      <point x="662.0" y="951.0"/>
      <point x="662.0" y="814.0" type="curve" smooth="yes"/>
      <point x="662.0" y="632.0"/>
      <point x="462.0" y="427.0"/>
      <point x="96.0" y="127.0" type="curve"/>
    </contour>
  </outline>
</glyph>
<glyph name="v_ha-deva" format="2">
  <advance width="1625.0"/>
  <anchor x="1399.0" y="-145.0" name="bottom"/>
  <anchor x="1243.0" y="1287.0" name="candra"/>
  <anchor x="761.0" y="-221.0" name="nukta"/>
  <anchor x="1354.0" y="1287.0" name="top"/>
  <outline>
    <contour>
      <point x="413.0" y="195.0" type="curve" smooth="yes"/>
      <point x="603.0" y="195.0"/>
      <point x="743.0" y="281.0"/>
      <point x="835.0" y="382.0" type="curve"/>
      <point x="801.0" y="591.0" type="line"/>
      <point x="731.0" y="485.0"/>
      <point x="591.0" y="375.0"/>
      <point x="427.0" y="375.0" type="curve" smooth="yes"/>
      <point x="320.0" y="375.0"/>
      <point x="266.0" y="416.0"/>
      <point x="266.0" y="553.0" type="curve" smooth="yes"/>
      <point x="266.0" y="720.0"/>
      <point x="350.0" y="765.0"/>
      <point x="479.0" y="770.0" type="curve" smooth="yes"/>
      <point x="578.0" y="774.0"/>
      <point x="737.0" y="746.0"/>
      <point x="860.0" y="651.0" type="curve"/>
      <point x="896.0" y="814.0" type="line"/>
      <point x="823.0" y="893.0"/>
      <point x="637.0" y="952.0"/>
      <point x="474.0" y="952.0" type="curve" smooth="yes"/>
      <point x="231.0" y="952.0"/>
      <point x="55.0" y="873.0"/>
      <point x="55.0" y="564.0" type="curve" smooth="yes"/>
      <point x="55.0" y="399.0"/>
      <point x="133.0" y="196.0"/>
    </contour>
    <contour>
      <point x="-19.0" y="1104.0" type="line"/>
      <point x="603.0" y="1104.0" type="line"/>
      <point x="603.0" y="1287.0" type="line"/>
      <point x="-19.0" y="1287.0" type="line"/>
    </contour>
    <component base="ha-deva" xOffset="592.0"/>
  </outline>
</glyph>
<glyph name="va_ra-deva" format="2">
  <advance width="1091.0"/>
  <anchor x="811.0" y="0.0" name="bottom"/>
  <anchor x="695.0" y="1287.0" name="candra"/>
  <anchor x="84.0" y="82.0" name="nukta"/>
  <anchor x="811.0" y="1287.0" name="top"/>
  <outline>
    <contour>
      <point x="237.0" y="-74.0" type="line"/>
      <point x="806.0" y="345.0" type="line"/>
      <point x="724.909" y="452.0" type="line"/>
      <point x="117.0" y="79.0" type="line"/>
    </contour>
    <component base="va-deva"/>
  </outline>
</glyph>
<glyph name="y_ra-deva" format="2">
  <advance width="620.0"/>
  <anchor x="479.0" y="0.0" name="nukta"/>
  <outline>
    <contour>
      <point x="247.0" y="-75.0" type="line"/>
      <point x="846.0" y="360.0" type="line"/>
      <point x="799.0" y="498.0" type="line"/>
      <point x="129.0" y="86.0" type="line"/>
    </contour>
    <component base="y-deva"/>
  </outline>
</glyph>
<glyph name="ya-deva.post.1" format="2">
  <advance width="1186.0"/>
  <anchor x="914.0" y="0.0" name="bottom"/>
  <anchor x="763.0" y="1287.0" name="candra"/>
  <anchor x="906.0" y="1287.0" name="top"/>
  <outline>
    <contour>
      <point x="-26.0" y="1104.0" type="line"/>
      <point x="1205.0" y="1104.0" type="line"/>
      <point x="1205.0" y="1287.0" type="line"/>
      <point x="-26.0" y="1287.0" type="line"/>
    </contour>
    <contour>
      <point x="541.0" y="127.0" type="curve" smooth="yes"/>
      <point x="670.0" y="127.0"/>
      <point x="763.0" y="173.0"/>
      <point x="844.0" y="257.0" type="curve"/>
      <point x="856.0" y="513.0" type="line"/>
      <point x="772.0" y="376.0"/>
      <point x="644.0" y="319.0"/>
      <point x="524.0" y="319.0" type="curve" smooth="yes"/>
      <point x="400.0" y="319.0"/>
      <point x="304.0" y="380.0"/>
      <point x="268.0" y="526.0" type="curve"/>
      <point x="251.0" y="448.0" type="line"/>
      <point x="360.0" y="484.0"/>
      <point x="519.0" y="549.0"/>
      <point x="519.0" y="737.0" type="curve" smooth="yes"/>
      <point x="519.0" y="926.0"/>
      <point x="402.0" y="984.0"/>
      <point x="199.0" y="983.0" type="curve" smooth="yes"/>
      <point x="-189.0" y="982.0" type="line"/>
      <point x="-178.0" y="807.0" type="line"/>
      <point x="228.0" y="807.0" type="line" smooth="yes"/>
      <point x="284.0" y="807.0"/>
      <point x="327.0" y="792.0"/>
      <point x="327.0" y="738.0" type="curve" smooth="yes"/>
      <point x="327.0" y="661.0"/>
      <point x="255.0" y="620.0"/>
      <point x="70.0" y="575.0" type="curve"/>
      <point x="121.0" y="289.0"/>
      <point x="293.0" y="127.0"/>
    </contour>
    <contour>
      <point x="817.0" y="0.0" type="line"/>
      <point x="1027.0" y="0.0" type="line"/>
      <point x="1027.0" y="1131.0" type="line"/>
      <point x="817.0" y="1131.0" type="line"/>
    </contour>
  </outline>
</glyph>
<glyph name="zero.osf" format="2">
  <advance width="1082.0"/>
  <outline>
    <contour>
      <point x="537.0" y="-25.0" type="curve" smooth="yes"/>
      <point x="804.0" y="-25.0"/>
      <point x="974.0" y="185.0"/>
      <point x="974.0" y="590.0" type="curve" smooth="yes"/>
      <point x="974.0" y="996.0"/>
      <point x="804.0" y="1203.0"/>
      <point x="537.0" y="1203.0" type="curve" smooth="yes"/>
      <point x="271.0" y="1203.0"/>
      <point x="101.0" y="996.0"/>
      <point x="101.0" y="590.0" type="curve" smooth="yes"/>
      <point x="101.0" y="185.0"/>
      <point x="271.0" y="-25.0"/>
    </contour>
    <contour>
      <point x="537.0" y="148.0" type="curve" smooth="yes"/>
      <point x="389.0" y="148.0"/>
      <point x="311.0" y="314.0"/>
      <point x="311.0" y="590.0" type="curve" smooth="yes"/>
      <point x="311.0" y="866.0"/>
      <point x="389.0" y="1030.0"/>
      <point x="537.0" y="1030.0" type="curve" smooth="yes"/>
      <point x="685.0" y="1030.0"/>
      <point x="764.0" y="866.0"/>
      <point x="764.0" y="590.0" type="curve" smooth="yes"/>
      <point x="764.0" y="314.0"/>
      <point x="685.0" y="148.0"/>
    </contour>
  </outline>
</glyph>
